<svg xmlns="http://www.w3.org/2000/svg" width="163.438" height="61.267" viewBox="0 0 163.438 61.267"><defs><style>.a{fill:#fff;}</style></defs><path class="a" d="M441.353,417.551v1.442a7,7,0,0,0-4.839-1.8c-4.842,0-8.416,3.9-8.416,9.138s3.581,9.14,8.416,9.14a7.005,7.005,0,0,0,4.839-1.806v1.444h5.419V417.551Zm-3.721,12.93a4.152,4.152,0,0,1,.036-8.294,4.153,4.153,0,0,1-.036,8.294Zm-14.338-4.659,6.429-8.271H423.55l-5.672,7.837V408.881h-5.53v26.225h5.527v-8.452l5.707,8.452h6.5Zm-17.974-7.511v16.794h5.287V418.311Zm2.66-8.12a2.9,2.9,0,0,0,0,5.805,2.9,2.9,0,0,0,0-5.805Zm-7.5.273a2.8,2.8,0,0,0-2.854,2.89,2.855,2.855,0,1,0,5.707,0A2.8,2.8,0,0,0,400.481,410.464Zm-37.492,6.725a6.108,6.108,0,0,0-4.524,1.7v-1.334h-5.519v17.554h5.525v-9.643c0-2.277,1.157-3.393,3-3.393a2.878,2.878,0,0,1,2.141.835l3.287-4.147A4.949,4.949,0,0,0,362.988,417.189Zm-17.2.362v1.191a7.163,7.163,0,0,0-4.586-1.553c-4.842,0-8.346,3.755-8.346,8.671s3.5,8.706,8.346,8.706a7.035,7.035,0,0,0,4.479-1.482v1.12c0,2.45-1.663,3.866-4.409,3.866a6.017,6.017,0,0,1-4.948-2.277l-3.393,3.393c1.7,2.422,4.7,3.794,8.523,3.794,5.672,0,9.754-3.5,9.754-8.921V417.551Zm-3.54,12.1a3.811,3.811,0,0,1,0-7.622,3.812,3.812,0,0,1,0,7.622Zm49.486-12.1v-2.17a1.757,1.757,0,0,1,1.841-1.951,2.388,2.388,0,0,1,1.446.469l2.746-4.045a6.642,6.642,0,0,0-4.192-1.372,6.969,6.969,0,0,0-7.368,7.187v1.885h-8.671V419a7.012,7.012,0,0,0-4.84-1.8c-4.84,0-8.416,3.9-8.416,9.138s3.581,9.14,8.416,9.14a7.013,7.013,0,0,0,4.84-1.806v1.444h5.419V422.247h3.25v12.859h5.527V422.247h5.96v12.859h5.527V417.551Zm-17.916,12.93a4.151,4.151,0,0,1,.038-8.294,4.153,4.153,0,0,1-.038,8.294Z" transform="translate(-283.334 -395.096)"/><path class="a" d="M246.06,337.48h7.668v7.626h-.041A7.624,7.624,0,0,1,246.06,337.48Z" transform="translate(-212.895 -337.478)"/><path class="a" d="M99.062,554.17h11.89a20.421,20.421,0,0,1-40.842,0H82a8.531,8.531,0,0,0,17.062,0Z" transform="translate(-70.11 -513.324)"/><path class="a" d="M90.531,378.316A20.423,20.423,0,1,0,70.11,357.894a20.423,20.423,0,0,0,20.421,20.422Zm0-28.952A8.531,8.531,0,1,1,82,357.895,8.531,8.531,0,0,1,90.531,349.364Z" transform="translate(-70.11 -337.47)"/></svg>